<?xml version="1.0" standalone="no"?>
<!DOCTYPE svg PUBLIC "-//W3C//DTD SVG 20010904//EN"
 "http://www.w3.org/TR/2001/REC-SVG-20010904/DTD/svg10.dtd">
<svg version="1.0" xmlns="http://www.w3.org/2000/svg"
 width="265.000000pt" height="99.000000pt" viewBox="0 0 265.000000 99.000000"
 preserveAspectRatio="xMidYMid meet">

<g transform="translate(0.000000,99.000000) scale(0.100000,-0.100000)"
fill="#000000" stroke="none">
<path d="M658 889 c-43 -57 -64 -108 -98 -234 -65 -243 -77 -342 -46 -389 30
-47 63 -30 122 64 l28 45 8 -50 c7 -52 34 -85 69 -85 44 0 117 145 130 260 9
72 17 107 56 233 16 52 16 61 3 99 -20 58 -56 76 -162 84 l-85 7 -25 -34z
m220 -10 c29 -18 44 -58 40 -105 -3 -31 -5 -35 -11 -19 -34 87 -69 107 -179
103 -76 -3 -79 -1 -54 31 14 18 172 10 204 -10z m-37 -55 c28 -14 49 -59 49
-105 0 -20 -11 -37 -40 -62 l-40 -34 22 -16 c23 -16 23 -17 4 -32 -11 -8 -28
-15 -38 -15 -24 0 -23 -12 6 -39 29 -28 38 -67 25 -115 -13 -48 -51 -91 -72
-83 -27 10 -31 56 -13 143 18 89 15 109 -16 118 -30 7 -38 0 -38 -36 0 -17 -3
-28 -7 -24 -4 4 -18 -33 -30 -81 -25 -91 -44 -123 -74 -123 -39 0 -37 107 4
320 27 136 39 174 59 186 40 25 149 24 199 -2z m39 -195 c-9 -15 -15 -18 -23
-10 -7 7 -5 16 8 32 22 24 32 10 15 -22z m-142 -92 c2 -19 -1 -27 -12 -27 -11
0 -16 10 -16 31 0 38 24 35 28 -4z m120 -34 l-3 -28 -21 36 -21 35 21 10 c24
10 30 -4 24 -53z m-140 -85 c-10 -48 -9 -59 5 -81 9 -14 28 -27 43 -29 l26 -3
-22 -27 c-18 -24 -24 -26 -43 -16 -31 16 -37 27 -37 74 0 40 27 150 36 142 2
-2 -2 -29 -8 -60z m-179 -61 c5 -37 9 -42 34 -45 33 -4 33 -9 5 -39 -28 -30
-34 -29 -53 7 -16 30 -19 69 -9 108 9 31 17 20 23 -31z"/>
<path d="M735 789 c4 -11 0 -35 -9 -53 -11 -23 -14 -48 -9 -85 6 -50 6 -51 25
-34 30 27 38 47 43 113 2 33 7 65 10 70 4 6 -9 10 -30 10 -32 0 -36 -2 -30
-21z m38 -19 c-3 -11 -8 -20 -12 -20 -4 0 -7 9 -8 20 -1 11 4 20 12 20 8 0 11
-7 8 -20z m-13 -55 c0 -8 -4 -15 -10 -15 -5 0 -10 7 -10 15 0 8 5 15 10 15 6
0 10 -7 10 -15z m0 -55 c-6 -11 -15 -20 -20 -20 -6 0 -10 9 -10 20 0 13 7 20
20 20 18 0 19 -3 10 -20z"/>
<path d="M1720 904 c-115 -25 -145 -68 -91 -130 17 -19 31 -40 31 -47 0 -6
-10 -75 -22 -152 -20 -131 -20 -146 -7 -230 13 -83 16 -90 41 -99 22 -8 32 -6
49 10 37 33 78 129 105 246 27 114 46 159 85 194 29 26 60 89 53 108 -3 8 -12
17 -20 20 -8 3 -14 16 -14 29 0 33 -16 44 -70 49 -25 3 -52 7 -60 10 -8 3 -44
0 -80 -8z m152 -19 c34 -5 54 -25 41 -39 -4 -3 -27 -3 -52 0 -67 9 -160 -11
-191 -41 -29 -28 -50 -19 -50 22 0 30 33 51 100 62 54 8 77 8 152 -4z m13 -64
c3 -6 -8 -20 -25 -32 -46 -34 -67 -91 -79 -206 -10 -107 -30 -167 -77 -228
-24 -32 -29 -34 -42 -21 -17 17 -12 49 33 211 26 94 24 136 -9 180 -32 42 -16
78 41 95 39 12 151 12 158 1z m63 -32 c1 -9 -22 -48 -52 -87 -49 -62 -58 -81
-76 -159 -29 -126 -66 -224 -100 -264 l-30 -34 -20 24 c-21 25 -27 47 -9 36
17 -11 87 74 110 134 13 33 25 96 30 153 9 113 26 156 77 192 40 28 65 30 70
5z m-252 -125 c5 -26 -1 -65 -21 -135 -15 -55 -31 -99 -36 -99 -9 0 -4 40 17
149 8 40 14 84 14 97 0 37 18 28 26 -12z"/>
<path d="M1080 849 c-19 -6 -42 -17 -51 -25 -29 -26 -67 -126 -89 -234 -11
-58 -26 -123 -32 -145 -6 -22 -10 -53 -9 -70 5 -59 30 -147 47 -166 43 -48
187 -50 257 -3 46 31 63 68 75 165 8 59 6 80 -5 103 -14 27 -13 32 13 85 25
48 28 66 27 135 -2 90 -11 115 -55 140 -36 22 -130 29 -178 15z m142 -19 c31
-9 85 -56 76 -66 -2 -1 -28 6 -58 16 -30 11 -74 19 -98 20 -72 0 -105 -25
-154 -120 -18 -34 -18 -35 -12 -5 10 46 44 122 62 138 29 26 121 34 184 17z
m11 -66 c59 -20 71 -41 57 -93 -10 -37 -67 -101 -90 -101 -19 0 -10 -17 16
-28 26 -12 25 -36 -1 -25 -8 3 -15 1 -15 -5 0 -5 10 -12 21 -15 21 -6 22 -10
16 -76 -3 -38 -13 -83 -21 -99 -22 -42 -78 -66 -166 -70 -69 -4 -77 -2 -98 21
-23 24 -23 25 -8 108 9 46 22 126 31 178 17 98 41 158 80 197 19 19 35 24 78
24 29 0 75 -7 100 -16z m56 -166 c-13 -45 -34 -65 -53 -49 -12 10 -9 17 22 46
20 19 38 35 39 35 1 0 -3 -14 -8 -32z m-343 -110 c-17 -139 -18 -144 -28 -119
-7 21 19 171 31 171 2 0 1 -24 -3 -52z m315 -122 c-14 -96 -29 -125 -79 -154
-78 -43 -175 -37 -223 15 l-24 25 25 -8 c45 -16 152 -9 202 14 60 26 77 54 85
136 4 41 10 63 15 58 6 -6 5 -39 -1 -86z"/>
<path d="M1122 718 c-6 -13 -13 -58 -15 -100 -5 -87 4 -98 48 -53 18 17 25 35
25 63 0 21 -3 42 -7 46 -4 4 -7 19 -8 34 0 34 -27 41 -43 10z m19 -31 c-8 -8
-11 -7 -11 4 0 20 13 34 18 19 3 -7 -1 -17 -7 -23z m15 -91 c-16 -39 -36 -48
-36 -16 0 11 7 20 15 20 10 0 15 10 15 27 0 19 3 24 11 16 7 -7 6 -21 -5 -47z"/>
<path d="M1070 518 c0 -2 -6 -40 -14 -85 -11 -67 -11 -83 -1 -83 7 0 18 -13
24 -30 5 -16 14 -30 20 -30 10 0 32 56 24 63 -3 3 3 20 14 37 18 31 18 32 -4
49 -12 10 -23 31 -25 47 -2 18 -10 30 -20 32 -10 2 -18 2 -18 0z m22 -50 c-9
-9 -12 -7 -12 12 0 19 3 21 12 12 9 -9 9 -15 0 -24z m33 -60 c-4 -13 -9 -38
-12 -55 -5 -34 -23 -46 -23 -15 0 47 14 92 27 92 11 0 13 -6 8 -22z"/>
<path d="M283 832 c-128 -52 -183 -175 -208 -468 -8 -92 -1 -115 45 -134 16
-7 30 -16 30 -20 0 -15 66 -30 106 -24 21 3 63 19 92 36 65 37 97 89 112 183
7 39 20 116 31 172 34 181 21 226 -71 256 -64 21 -83 21 -137 -1z m175 -47
c27 -32 28 -58 3 -144 -10 -36 -22 -92 -25 -123 -11 -101 -52 -212 -91 -247
-51 -44 -141 -65 -185 -41 -44 23 -52 134 -19 263 55 221 75 267 128 299 68
43 148 40 189 -7z m-255 -37 c-10 -13 -87 -269 -96 -318 -2 -15 -5 -6 -5 20
-3 89 43 246 85 292 18 20 31 25 16 6z m273 -158 c-8 -30 -14 -45 -15 -32 -1
29 22 122 26 102 1 -8 -3 -40 -11 -70z m-19 -102 c-3 -8 -6 -5 -6 6 -1 11 2
17 5 13 3 -3 4 -12 1 -19z m-22 -125 c-21 -73 -36 -94 -87 -123 l-42 -24 46
45 c37 36 50 57 67 115 12 39 22 77 22 85 1 8 4 2 6 -14 2 -15 -3 -53 -12 -84z
m-332 -37 c6 -61 5 -68 -8 -55 -11 10 -13 29 -8 72 3 32 7 56 8 55 1 -2 5 -34
8 -72z m187 -116 c-8 -5 -24 -9 -35 -9 -16 1 -16 2 5 9 35 11 48 11 30 0z"/>
<path d="M296 733 c-23 -76 -75 -300 -80 -349 -6 -58 -5 -62 16 -68 13 -3 34
-6 48 -6 25 0 25 2 58 203 18 111 33 205 32 210 0 4 -9 7 -19 7 -11 0 -23 5
-26 10 -10 15 -23 12 -29 -7z m19 -33 c-4 -12 -9 -19 -12 -17 -3 3 -2 15 2 27
4 12 9 19 12 17 3 -3 2 -15 -2 -27z m11 -168 c-14 -77 -26 -154 -26 -171 0
-29 -22 -52 -36 -38 -3 3 6 52 20 109 14 56 32 136 41 176 28 122 28 73 1 -76z
m-51 1 c-20 -156 -44 -248 -45 -169 0 39 38 216 46 216 3 0 3 -21 -1 -47z"/>
<path d="M1462 830 c-39 -37 -64 -101 -103 -269 -47 -201 -49 -256 -13 -312
20 -33 30 -40 52 -37 22 2 34 16 63 72 62 118 123 426 99 496 -25 70 -58 87
-98 50z m33 -12 c-11 -6 -29 -18 -40 -27 -14 -11 -12 -7 4 12 14 15 32 27 40
27 12 -1 11 -3 -4 -12z m41 -33 c8 -21 -24 -289 -42 -354 -17 -60 -49 -114
-88 -150 -23 -22 -28 -23 -41 -10 -32 31 58 451 108 507 23 25 55 29 63 7z
m-112 -74 c-8 -29 -18 -51 -21 -48 -3 3 3 29 12 57 22 67 30 59 9 -9z m-69
-298 c-4 -32 -11 -62 -15 -67 -5 -5 -7 -1 -5 10 2 10 7 40 10 67 3 26 9 47 12
47 3 0 2 -26 -2 -57z m81 -151 c-17 -32 -36 -44 -55 -33 -7 5 -3 12 15 21 14
8 30 23 36 33 5 10 12 16 15 14 2 -3 -2 -19 -11 -35z"/>
<path d="M2093 820 c-84 -39 -121 -95 -174 -265 -23 -72 -49 -157 -60 -191
-20 -63 -23 -94 -13 -132 11 -38 45 -37 119 2 38 20 70 36 72 36 1 0 3 -8 3
-18 0 -40 57 -57 96 -27 10 8 31 15 45 15 24 0 28 7 47 73 34 113 41 161 48
319 l7 147 -35 35 c-44 44 -70 45 -155 6z m143 -13 c27 -24 28 -25 26 -146 -2
-140 -12 -213 -44 -326 -17 -58 -28 -81 -41 -83 -17 -4 -17 -2 2 35 33 67 43
152 35 317 l-7 151 -32 32 c-18 18 -30 35 -27 38 13 13 63 3 88 -18z m-170
-44 c-9 -15 -27 -57 -40 -93 -13 -36 -43 -110 -67 -165 -47 -110 -57 -188 -29
-239 12 -24 12 -28 0 -36 -23 -15 -57 -12 -64 6 -10 26 -7 72 8 122 74 241 91
293 113 337 24 47 81 111 90 101 3 -3 -2 -17 -11 -33z m90 22 c40 -27 46 -62
42 -252 -3 -165 -5 -182 -28 -225 -22 -45 -25 -47 -42 -32 -9 9 -22 32 -28 50
-12 35 -34 45 -44 19 -3 -8 -12 -15 -20 -15 -8 0 -28 -17 -44 -37 -25 -31 -33
-36 -44 -25 -23 23 -16 139 14 207 14 33 42 101 62 150 76 187 83 195 132 160z
m-53 -502 c28 -46 25 -62 -10 -63 -28 0 -57 82 -36 103 12 12 18 7 46 -40z"/>
<path d="M2151 678 c-5 -13 -22 -57 -39 -98 -16 -41 -33 -91 -37 -110 l-7 -35
22 20 c39 35 57 80 86 223 2 12 0 22 -6 22 -6 0 -14 -10 -19 -22z m-21 -132
c-6 -20 -15 -38 -20 -41 -5 -3 -2 14 7 39 20 53 31 54 13 2z"/>
<path d="M2061 626 c-6 -25 -11 -55 -11 -68 -1 -13 -9 -48 -20 -78 -10 -30
-16 -57 -13 -60 11 -11 53 57 57 95 18 147 11 205 -13 111z"/>
<path d="M2432 834 c-28 -19 -68 -97 -77 -150 -4 -21 -23 -100 -42 -174 -38
-150 -38 -181 2 -253 35 -62 47 -70 109 -69 65 0 91 13 111 52 14 27 13 33 -7
75 -12 25 -26 45 -30 45 -13 0 -9 70 7 130 35 133 29 294 -13 343 -19 21 -31
21 -60 1z m48 -15 c0 -7 -17 -26 -37 -44 -23 -20 -43 -50 -54 -81 -14 -38 -18
-43 -18 -23 -1 31 23 92 51 132 19 27 58 38 58 16z m30 -73 c0 -12 -16 -78
-35 -146 -19 -68 -35 -139 -35 -157 0 -18 13 -58 29 -88 l29 -55 -30 -25 c-34
-28 -107 -35 -127 -11 -20 24 39 388 74 457 20 38 66 70 82 57 7 -6 13 -20 13
-32z m-143 -128 c-3 -8 -6 -5 -6 6 -1 11 2 17 5 13 3 -3 4 -12 1 -19z m122
-125 c-16 -68 -25 -91 -30 -77 -9 25 -3 62 24 154 31 106 35 50 6 -77z m-144
12 c-7 -50 -16 -117 -20 -150 -6 -48 -9 -56 -17 -41 -6 10 -8 42 -5 70 5 49
47 219 53 213 1 -1 -3 -43 -11 -92z m185 -233 c-1 -22 -19 -46 -47 -60 -31
-17 -98 -15 -113 3 -11 13 -8 15 14 15 36 0 87 22 110 48 20 23 36 21 36 -6z"/>
</g>
</svg>
